<?xml version="1.0" encoding="UTF-8" standalone="no"?>
<svg
   version="1.1"
   width="918.42517pt"
   height="1298.2677pt"
   id="svg15"
   viewBox="0 0 918.42517 1298.2677"
   sodipodi:docname="logo new.cdr"
   xmlns:inkscape="http://www.inkscape.org/namespaces/inkscape"
   xmlns:sodipodi="http://sodipodi.sourceforge.net/DTD/sodipodi-0.dtd"
   xmlns="http://www.w3.org/2000/svg"
   xmlns:svg="http://www.w3.org/2000/svg">
  <defs
     id="defs15" />
  <sodipodi:namedview
     id="namedview15"
     pagecolor="#ffffff"
     bordercolor="#000000"
     borderopacity="0.25"
     inkscape:showpageshadow="2"
     inkscape:pageopacity="0.0"
     inkscape:pagecheckerboard="0"
     inkscape:deskcolor="#d1d1d1"
     inkscape:document-units="pt" />
  <path
     d="M -0.0275,0.066 V 1298.3338 H 918.3977 V 0.066 Z"
     style="fill:#1b1918;fill-rule:evenodd;stroke:#1b1918;stroke-width:0.5;stroke-linecap:butt;stroke-linejoin:miter;stroke-dasharray:none"
     id="path1" />
  <path
     d="m 424.7639,425.0746 10.774,-6.2083 0.1752,-74.6431 c 23.6262,-1.0839 59.5199,-1.6514 80.93,1.5727 102.5646,15.4473 -27.1202,207.4063 -13.7238,214.0662 14.3351,7.1283 86.1968,-113.8978 92.1796,-129.2963 13.8086,-35.5413 16.7911,-90.2434 -24.9884,-114.2747 -18.1356,-10.4315 -44.4312,-7.7987 -69.1031,-7.7987 -46.609,0 -103.0977,-13.275 -96.1097,57.4224 1.9196,19.4251 10.4499,46.2611 19.8662,59.1598 z"
     style="fill:#f9b704;fill-rule:evenodd"
     id="path2" />
  <path
     d="m 424.7639,425.0746 10.774,-6.2083 0.1752,-74.6431 c 23.6262,-1.0839 59.5199,-1.6514 80.93,1.5727 102.5646,15.4473 -27.1202,207.4063 -13.7238,214.0662 14.3351,7.1283 86.1968,-113.8978 92.1796,-129.2963 13.8086,-35.5413 16.7911,-90.2434 -24.9884,-114.2747 -18.1356,-10.4315 -44.4312,-7.7987 -69.1031,-7.7987 -46.609,0 -103.0977,-13.275 -96.1097,57.4224 1.9196,19.4251 10.4499,46.2611 19.8662,59.1598 z"
     style="fill:#f9b704;fill-rule:evenodd"
     id="path3" />
  <path
     d="m 451.0972,552.4702 c 1.4214,-15.0168 -22.7562,-79.4721 14.1921,-110.9137 12.4914,-10.6294 18.4382,-8.717 33.2255,-13.771 -4.7342,-9.081 -28.6608,-11.1736 -41.8555,-8.2287 -16.6559,3.7173 -26.796,17.2611 -36.429,19.1513 -10.2748,-26.4369 -57.4208,-113.9155 11.2451,-138.4755 21.3724,-7.6442 37.2093,-3.5034 60.0248,-2.8806 -8.0598,-15.5819 -59.6879,-38.9111 -104.4039,-18.0812 -29.3119,13.654 -51.0368,53.2335 -39.3118,95.136 8.82,31.5225 29.8877,70.1217 44.8861,95.8626 8.3208,14.2797 49.1782,78.5582 58.4266,82.2008 z"
     style="fill:#f9b704;fill-rule:evenodd"
     id="path4" />
  <path
     d="m 451.0972,552.4702 c 1.4214,-15.0168 -22.7562,-79.4721 14.1921,-110.9137 12.4914,-10.6294 18.4382,-8.717 33.2255,-13.771 -4.7342,-9.081 -28.6608,-11.1736 -41.8555,-8.2287 -16.6559,3.7173 -26.796,17.2611 -36.429,19.1513 -10.2748,-26.4369 -57.4208,-113.9155 11.2451,-138.4755 21.3724,-7.6442 37.2093,-3.5034 60.0248,-2.8806 -8.0598,-15.5819 -59.6879,-38.9111 -104.4039,-18.0812 -29.3119,13.654 -51.0368,53.2335 -39.3118,95.136 8.82,31.5225 29.8877,70.1217 44.8861,95.8626 8.3208,14.2797 49.1782,78.5582 58.4266,82.2008 z"
     style="fill:#f9b704;fill-rule:evenodd"
     id="path5" />
  <path
     d="m 353.0784,459.543 c 2.5286,-5.7035 6.8051,0.4871 12.9386,2.2804 2.9254,-11.162 -0.276,-1.5134 4.85,-5.0274 -4.7187,-8.3402 -17.3015,-38.3354 -22.9518,-41.3545 -9.874,-5.2756 -35.0109,-8.4321 -49.4009,-15.2727 -15.5027,-7.3698 -25.9121,-23.5924 -13.3415,-41.0292 10.4,-14.426 28.2646,-13.7427 48.6811,-15.8524 2.6849,-12.247 11.7267,-31.016 12.1201,-35.2077 -59.5499,-5.4053 -110.4819,17.1902 -106.3268,77.3907 3.8298,55.4934 66.5539,55.4396 113.4312,74.0728 z"
     style="fill:#0a8bc4;fill-rule:evenodd"
     id="path6" />
  <path
     d="m 353.0784,459.543 c 2.5286,-5.7035 6.8051,0.4871 12.9386,2.2804 2.9254,-11.162 -0.276,-1.5134 4.85,-5.0274 -4.7187,-8.3402 -17.3015,-38.3354 -22.9518,-41.3545 -9.874,-5.2756 -35.0109,-8.4321 -49.4009,-15.2727 -15.5027,-7.3698 -25.9121,-23.5924 -13.3415,-41.0292 10.4,-14.426 28.2646,-13.7427 48.6811,-15.8524 2.6849,-12.247 11.7267,-31.016 12.1201,-35.2077 -59.5499,-5.4053 -110.4819,17.1902 -106.3268,77.3907 3.8298,55.4934 66.5539,55.4396 113.4312,74.0728 z"
     style="fill:#0a8bc4;fill-rule:evenodd"
     id="path7" />
  <path
     d="m 579.1811,481.1909 c 22.9307,43.6919 93.3754,65.2162 149.2506,43.7611 15.7721,-6.0559 36.7921,-19.3901 40.4562,-30.7012 L 741.981,470.4329 c -22.1925,17.3447 -41.4952,33.85 -82.9571,22.729 -26.6764,-7.1548 -50.9831,-30.7167 -53.6824,-60.1024 -2.808,2.4117 -2.1857,1.5411 -4.5458,5.1914 z"
     style="fill:#ffffff;fill-rule:evenodd"
     id="path8" />
  <path
     d="m 579.1811,481.1909 c 22.9307,43.6919 93.3754,65.2162 149.2506,43.7611 15.7721,-6.0559 36.7921,-19.3901 40.4562,-30.7012 L 741.981,470.4329 c -22.1925,17.3447 -41.4952,33.85 -82.9571,22.729 -26.6764,-7.1548 -50.9831,-30.7167 -53.6824,-60.1024 -2.808,2.4117 -2.1857,1.5411 -4.5458,5.1914 z"
     style="fill:#ffffff;fill-rule:evenodd"
     id="path9" />
  <path
     d="m 370.867,456.796 c -6.0919,-2.2599 -17.5248,-1.1127 -19.0211,2.2627 33.8506,22.0169 16.0536,51.7949 -18.9634,55.4978 -38.1797,4.0376 -61.8552,-10.912 -84.2019,-25.1258 l -14.7668,35.1035 c 8.7048,3.9883 14.7507,9.6203 25.553,14.4748 80.1205,36.0051 149.8465,-10.3435 142.2976,-30.7744 -1.3987,-3.7872 -23.2593,-33.6394 -30.8974,-51.4386 z"
     style="fill:#ffffff;fill-rule:evenodd"
     id="path10" />
  <path
     d="m 370.867,456.796 c -6.0919,-2.2599 -17.5248,-1.1127 -19.0211,2.2627 33.8506,22.0169 16.0536,51.7949 -18.9634,55.4978 -38.1797,4.0376 -61.8552,-10.912 -84.2019,-25.1258 l -14.7668,35.1035 c 8.7048,3.9883 14.7507,9.6203 25.553,14.4748 80.1205,36.0051 149.8465,-10.3435 142.2976,-30.7744 -1.3987,-3.7872 -23.2593,-33.6394 -30.8974,-51.4386 z"
     style="fill:#ffffff;fill-rule:evenodd"
     id="path11" />
  <path
     d="m 601.1697,330.8002 c 2.3347,7.2275 5.555,12.8821 7.7062,20.9934 1.8964,7.1471 2.8662,16.3057 4.5004,24.8421 2.2421,-1.581 37.9934,-55.387 100.4621,-29.9664 12.932,5.2629 22.9967,16.7634 29.5851,18.7385 6.0715,-5.1693 23.143,-20.6847 24.9618,-24.9745 -16.5368,-19.6191 -42.1048,-33.7275 -77.9071,-36.6225 -40.2556,-3.2546 -65.8208,10.6693 -89.3085,26.9894 z"
     style="fill:#0a9cd6;fill-rule:evenodd"
     id="path12" />
  <path
     d="m 601.1697,330.8002 c 2.3347,7.2275 5.555,12.8821 7.7062,20.9934 1.8964,7.1471 2.8662,16.3057 4.5004,24.8421 2.2421,-1.581 37.9934,-55.387 100.4621,-29.9664 12.932,5.2629 22.9967,16.7634 29.5851,18.7385 6.0715,-5.1693 23.143,-20.6847 24.9618,-24.9745 -16.5368,-19.6191 -42.1048,-33.7275 -77.9071,-36.6225 -40.2556,-3.2546 -65.8208,10.6693 -89.3085,26.9894 z"
     style="fill:#0a9cd6;fill-rule:evenodd"
     id="path13" />
  <path
     d="m 459.3245,520.9782 c 1.8672,7.5002 3.7491,4.5094 9.7056,6.2844 -5.8631,0.3639 -8.0674,-0.5989 -13.8809,3.3308 3.9771,4.7802 5.4336,2.4063 7.825,6.0466 3.2915,5.0105 -1.2913,5.8805 6.3781,7.8135 l -10.5731,2.1996 c 3.8464,4.8578 3.9486,3.0134 6.7522,5.3789 4.3795,3.6958 1.0237,3.1543 5.2832,6.4458 l -6.2349,1.6067 c 5.4598,7.0838 2.9768,-0.2394 6.8654,9.9347 2.4979,6.5353 4.514,6.0231 8.6087,7.8267 13.9208,-6.1309 -0.4419,-7.7341 13.9632,-13.3342 -9.7179,-9.4223 -4.6546,-7.6487 3.9464,-12.1371 -2.7361,-4.2853 -4.1709,-3.0844 -7.9214,-5.468 3.7429,-11.5639 -1.5104,-5.2385 9.8879,-11.0945 -3.4334,-4.6961 -2.9595,-2.5257 -6.8452,-5.1514 l 1.3743,-13.5185 c -5.567,-1.7912 -28.6807,-1.2818 -32.7714,1.4461 -2.6042,1.7367 -1.1803,0.3949 -2.3631,2.3899 z"
     style="fill:#f1920e;fill-rule:evenodd"
     id="path14" />
  <path
     d="m 459.3245,520.9782 c 1.8672,7.5002 3.7491,4.5094 9.7056,6.2844 -5.8631,0.3639 -8.0674,-0.5989 -13.8809,3.3308 3.9771,4.7802 5.4336,2.4063 7.825,6.0466 3.2915,5.0105 -1.2913,5.8805 6.3781,7.8135 l -10.5731,2.1996 c 3.8464,4.8578 3.9486,3.0134 6.7522,5.3789 4.3795,3.6958 1.0237,3.1543 5.2832,6.4458 l -6.2349,1.6067 c 5.4598,7.0838 2.9768,-0.2394 6.8654,9.9347 2.4979,6.5353 4.514,6.0231 8.6087,7.8267 13.9208,-6.1309 -0.4419,-7.7341 13.9632,-13.3342 -9.7179,-9.4223 -4.6546,-7.6487 3.9464,-12.1371 -2.7361,-4.2853 -4.1709,-3.0844 -7.9214,-5.468 3.7429,-11.5639 -1.5104,-5.2385 9.8879,-11.0945 -3.4334,-4.6961 -2.9595,-2.5257 -6.8452,-5.1514 l 1.3743,-13.5185 c -5.567,-1.7912 -28.6807,-1.2818 -32.7714,1.4461 -2.6042,1.7367 -1.1803,0.3949 -2.3631,2.3899 z"
     style="fill:#f1920e;fill-rule:evenodd"
     id="path15" />
</svg>
